<?xml version="1.0" encoding="UTF-8" standalone="no"?>
<!DOCTYPE svg PUBLIC "-//W3C//DTD SVG 1.1//EN"
 "http://www.w3.org/Graphics/SVG/1.1/DTD/svg11.dtd">
<!-- Generated by graphviz version 2.40.1 (20161225.0304)
 -->
<!-- Title: %0 Pages: 1 -->
<svg width="797pt" height="404pt"
 viewBox="0.00 0.00 797.09 404.00" xmlns="http://www.w3.org/2000/svg" xmlns:xlink="http://www.w3.org/1999/xlink">
<g id="graph0" class="graph" transform="scale(1 1) rotate(0) translate(4 400)">
<title>%0</title>
<polygon fill="#ffffff" stroke="transparent" points="-4,4 -4,-400 793.0869,-400 793.0869,4 -4,4"/>
<!-- C:\Users\usman\Desktop\Matrix_Multiplier &#45; Copy\carry_lookaheadadder_16bit.sv -->
<g id="node1" class="node">
<title>C:\Users\usman\Desktop\Matrix_Multiplier &#45; Copy\carry_lookaheadadder_16bit.sv</title>
<polygon fill="#d3d3d3" stroke="#069302" points="211.4208,-252 -.1404,-252 -.1404,-248 -4.1404,-248 -4.1404,-244 -.1404,-244 -.1404,-224 -4.1404,-224 -4.1404,-220 -.1404,-220 -.1404,-216 211.4208,-216 211.4208,-252"/>
<polyline fill="none" stroke="#069302" points="-.1404,-248 3.8596,-248 3.8596,-244 -.1404,-244 "/>
<polyline fill="none" stroke="#069302" points="-.1404,-224 3.8596,-224 3.8596,-220 -.1404,-220 "/>
<text text-anchor="middle" x="105.6402" y="-229.8" font-family="Helvetica,sans-Serif" font-size="14.00" fill="#000000">carry_lookaheadadder_16bit.sv</text>
</g>
<!-- C:\Users\usman\Desktop\Matrix_Multiplier &#45; Copy\carry_lookaheadblock_4bit.sv -->
<g id="node2" class="node">
<title>C:\Users\usman\Desktop\Matrix_Multiplier &#45; Copy\carry_lookaheadblock_4bit.sv</title>
<polygon fill="#d3d3d3" stroke="#069302" points="206.0192,-180 5.2612,-180 5.2612,-176 1.2612,-176 1.2612,-172 5.2612,-172 5.2612,-152 1.2612,-152 1.2612,-148 5.2612,-148 5.2612,-144 206.0192,-144 206.0192,-180"/>
<polyline fill="none" stroke="#069302" points="5.2612,-176 9.2612,-176 9.2612,-172 5.2612,-172 "/>
<polyline fill="none" stroke="#069302" points="5.2612,-152 9.2612,-152 9.2612,-148 5.2612,-148 "/>
<text text-anchor="middle" x="105.6402" y="-157.8" font-family="Helvetica,sans-Serif" font-size="14.00" fill="#000000">carry_lookaheadblock_4bit.sv</text>
</g>
<!-- C:\Users\usman\Desktop\Matrix_Multiplier &#45; Copy\carry_lookaheadadder_16bit.sv&#45;&gt;C:\Users\usman\Desktop\Matrix_Multiplier &#45; Copy\carry_lookaheadblock_4bit.sv -->
<g id="edge2" class="edge">
<title>C:\Users\usman\Desktop\Matrix_Multiplier &#45; Copy\carry_lookaheadadder_16bit.sv&#45;&gt;C:\Users\usman\Desktop\Matrix_Multiplier &#45; Copy\carry_lookaheadblock_4bit.sv</title>
<path fill="none" stroke="#000000" d="M105.6402,-215.8314C105.6402,-208.131 105.6402,-198.9743 105.6402,-190.4166"/>
<polygon fill="#000000" stroke="#000000" points="109.1403,-190.4132 105.6402,-180.4133 102.1403,-190.4133 109.1403,-190.4132"/>
</g>
<!-- C:\Users\usman\Desktop\Matrix_Multiplier &#45; Copy\half_adder.sv -->
<g id="node6" class="node">
<title>C:\Users\usman\Desktop\Matrix_Multiplier &#45; Copy\half_adder.sv</title>
<polygon fill="#d3d3d3" stroke="#069302" points="522.6668,-36 422.6136,-36 422.6136,-32 418.6136,-32 418.6136,-28 422.6136,-28 422.6136,-8 418.6136,-8 418.6136,-4 422.6136,-4 422.6136,0 522.6668,0 522.6668,-36"/>
<polyline fill="none" stroke="#069302" points="422.6136,-32 426.6136,-32 426.6136,-28 422.6136,-28 "/>
<polyline fill="none" stroke="#069302" points="422.6136,-8 426.6136,-8 426.6136,-4 422.6136,-4 "/>
<text text-anchor="middle" x="472.6402" y="-13.8" font-family="Helvetica,sans-Serif" font-size="14.00" fill="#000000">half_adder.sv</text>
</g>
<!-- C:\Users\usman\Desktop\Matrix_Multiplier &#45; Copy\carry_lookaheadadder_16bit.sv&#45;&gt;C:\Users\usman\Desktop\Matrix_Multiplier &#45; Copy\half_adder.sv -->
<g id="edge1" class="edge">
<title>C:\Users\usman\Desktop\Matrix_Multiplier &#45; Copy\carry_lookaheadadder_16bit.sv&#45;&gt;C:\Users\usman\Desktop\Matrix_Multiplier &#45; Copy\half_adder.sv</title>
<path fill="none" stroke="#000000" d="M144.4684,-215.9373C165.5023,-205.8606 191.7898,-192.7914 214.6402,-180 296.2713,-134.3036 388.2662,-74.4161 437.3332,-41.7629"/>
<polygon fill="#000000" stroke="#000000" points="439.3187,-44.6457 445.6955,-36.1848 435.4342,-38.8224 439.3187,-44.6457"/>
</g>
<!-- C:\Users\usman\Desktop\Matrix_Multiplier &#45; Copy\control_path.sv -->
<g id="node3" class="node">
<title>C:\Users\usman\Desktop\Matrix_Multiplier &#45; Copy\control_path.sv</title>
<polygon fill="#d3d3d3" stroke="#069302" points="341.0574,-324 230.223,-324 230.223,-320 226.223,-320 226.223,-316 230.223,-316 230.223,-296 226.223,-296 226.223,-292 230.223,-292 230.223,-288 341.0574,-288 341.0574,-324"/>
<polyline fill="none" stroke="#069302" points="230.223,-320 234.223,-320 234.223,-316 230.223,-316 "/>
<polyline fill="none" stroke="#069302" points="230.223,-296 234.223,-296 234.223,-292 230.223,-292 "/>
<text text-anchor="middle" x="285.6402" y="-301.8" font-family="Helvetica,sans-Serif" font-size="14.00" fill="#000000">control_path.sv</text>
</g>
<!-- C:\Users\usman\Desktop\Matrix_Multiplier &#45; Copy\data_path.sv -->
<g id="node4" class="node">
<title>C:\Users\usman\Desktop\Matrix_Multiplier &#45; Copy\data_path.sv</title>
<polygon fill="#d3d3d3" stroke="#069302" points="455.7903,-324 359.4901,-324 359.4901,-320 355.4901,-320 355.4901,-316 359.4901,-316 359.4901,-296 355.4901,-296 355.4901,-292 359.4901,-292 359.4901,-288 455.7903,-288 455.7903,-324"/>
<polyline fill="none" stroke="#069302" points="359.4901,-320 363.4901,-320 363.4901,-316 359.4901,-316 "/>
<polyline fill="none" stroke="#069302" points="359.4901,-296 363.4901,-296 363.4901,-292 359.4901,-292 "/>
<text text-anchor="middle" x="407.6402" y="-301.8" font-family="Helvetica,sans-Serif" font-size="14.00" fill="#000000">data_path.sv</text>
</g>
<!-- C:\Users\usman\Desktop\Matrix_Multiplier &#45; Copy\data_path.sv&#45;&gt;C:\Users\usman\Desktop\Matrix_Multiplier &#45; Copy\carry_lookaheadadder_16bit.sv -->
<g id="edge6" class="edge">
<title>C:\Users\usman\Desktop\Matrix_Multiplier &#45; Copy\data_path.sv&#45;&gt;C:\Users\usman\Desktop\Matrix_Multiplier &#45; Copy\carry_lookaheadadder_16bit.sv</title>
<path fill="none" stroke="#000000" d="M359.3067,-290.6704C356.0438,-289.7374 352.7993,-288.8382 349.6402,-288 302.564,-275.509 249.855,-263.589 205.5059,-254.1412"/>
<polygon fill="#000000" stroke="#000000" points="206.1013,-250.6897 195.593,-252.0408 204.6503,-257.5377 206.1013,-250.6897"/>
</g>
<!-- C:\Users\usman\Desktop\Matrix_Multiplier &#45; Copy\finaldata_reg.sv -->
<g id="node5" class="node">
<title>C:\Users\usman\Desktop\Matrix_Multiplier &#45; Copy\finaldata_reg.sv</title>
<polygon fill="#d3d3d3" stroke="#069302" points="343.9468,-252 229.3336,-252 229.3336,-248 225.3336,-248 225.3336,-244 229.3336,-244 229.3336,-224 225.3336,-224 225.3336,-220 229.3336,-220 229.3336,-216 343.9468,-216 343.9468,-252"/>
<polyline fill="none" stroke="#069302" points="229.3336,-248 233.3336,-248 233.3336,-244 229.3336,-244 "/>
<polyline fill="none" stroke="#069302" points="229.3336,-224 233.3336,-224 233.3336,-220 229.3336,-220 "/>
<text text-anchor="middle" x="286.6402" y="-229.8" font-family="Helvetica,sans-Serif" font-size="14.00" fill="#000000">finaldata_reg.sv</text>
</g>
<!-- C:\Users\usman\Desktop\Matrix_Multiplier &#45; Copy\data_path.sv&#45;&gt;C:\Users\usman\Desktop\Matrix_Multiplier &#45; Copy\finaldata_reg.sv -->
<g id="edge4" class="edge">
<title>C:\Users\usman\Desktop\Matrix_Multiplier &#45; Copy\data_path.sv&#45;&gt;C:\Users\usman\Desktop\Matrix_Multiplier &#45; Copy\finaldata_reg.sv</title>
<path fill="none" stroke="#000000" d="M377.1068,-287.8314C361.6301,-278.6221 342.6533,-267.3301 326.0839,-257.4706"/>
<polygon fill="#000000" stroke="#000000" points="327.5473,-254.2687 317.1638,-252.1628 323.9678,-260.2843 327.5473,-254.2687"/>
</g>
<!-- C:\Users\usman\Desktop\Matrix_Multiplier &#45; Copy\mux_2x1.sv -->
<g id="node8" class="node">
<title>C:\Users\usman\Desktop\Matrix_Multiplier &#45; Copy\mux_2x1.sv</title>
<polygon fill="#d3d3d3" stroke="#069302" points="452.8224,-252 362.458,-252 362.458,-248 358.458,-248 358.458,-244 362.458,-244 362.458,-224 358.458,-224 358.458,-220 362.458,-220 362.458,-216 452.8224,-216 452.8224,-252"/>
<polyline fill="none" stroke="#069302" points="362.458,-248 366.458,-248 366.458,-244 362.458,-244 "/>
<polyline fill="none" stroke="#069302" points="362.458,-224 366.458,-224 366.458,-220 362.458,-220 "/>
<text text-anchor="middle" x="407.6402" y="-229.8" font-family="Helvetica,sans-Serif" font-size="14.00" fill="#000000">mux_2x1.sv</text>
</g>
<!-- C:\Users\usman\Desktop\Matrix_Multiplier &#45; Copy\data_path.sv&#45;&gt;C:\Users\usman\Desktop\Matrix_Multiplier &#45; Copy\mux_2x1.sv -->
<g id="edge7" class="edge">
<title>C:\Users\usman\Desktop\Matrix_Multiplier &#45; Copy\data_path.sv&#45;&gt;C:\Users\usman\Desktop\Matrix_Multiplier &#45; Copy\mux_2x1.sv</title>
<path fill="none" stroke="#000000" d="M407.6402,-287.8314C407.6402,-280.131 407.6402,-270.9743 407.6402,-262.4166"/>
<polygon fill="#000000" stroke="#000000" points="411.1403,-262.4132 407.6402,-252.4133 404.1403,-262.4133 411.1403,-262.4132"/>
</g>
<!-- C:\Users\usman\Desktop\Matrix_Multiplier &#45; Copy\partialproduct_reg.sv -->
<g id="node9" class="node">
<title>C:\Users\usman\Desktop\Matrix_Multiplier &#45; Copy\partialproduct_reg.sv</title>
<polygon fill="#d3d3d3" stroke="#069302" points="617.8333,-252 471.4471,-252 471.4471,-248 467.4471,-248 467.4471,-244 471.4471,-244 471.4471,-224 467.4471,-224 467.4471,-220 471.4471,-220 471.4471,-216 617.8333,-216 617.8333,-252"/>
<polyline fill="none" stroke="#069302" points="471.4471,-248 475.4471,-248 475.4471,-244 471.4471,-244 "/>
<polyline fill="none" stroke="#069302" points="471.4471,-224 475.4471,-224 475.4471,-220 471.4471,-220 "/>
<text text-anchor="middle" x="544.6402" y="-229.8" font-family="Helvetica,sans-Serif" font-size="14.00" fill="#000000">partialproduct_reg.sv</text>
</g>
<!-- C:\Users\usman\Desktop\Matrix_Multiplier &#45; Copy\data_path.sv&#45;&gt;C:\Users\usman\Desktop\Matrix_Multiplier &#45; Copy\partialproduct_reg.sv -->
<g id="edge5" class="edge">
<title>C:\Users\usman\Desktop\Matrix_Multiplier &#45; Copy\data_path.sv&#45;&gt;C:\Users\usman\Desktop\Matrix_Multiplier &#45; Copy\partialproduct_reg.sv</title>
<path fill="none" stroke="#000000" d="M442.2111,-287.8314C460.0587,-278.4516 482.0176,-266.9112 501.0202,-256.9244"/>
<polygon fill="#000000" stroke="#000000" points="502.8566,-259.9132 510.0804,-252.1628 499.6001,-253.7168 502.8566,-259.9132"/>
</g>
<!-- C:\Users\usman\Desktop\Matrix_Multiplier &#45; Copy\vedicmultiplier_8bit.sv -->
<g id="node12" class="node">
<title>C:\Users\usman\Desktop\Matrix_Multiplier &#45; Copy\vedicmultiplier_8bit.sv</title>
<polygon fill="#d3d3d3" stroke="#069302" points="789.0336,-252 636.2468,-252 636.2468,-248 632.2468,-248 632.2468,-244 636.2468,-244 636.2468,-224 632.2468,-224 632.2468,-220 636.2468,-220 636.2468,-216 789.0336,-216 789.0336,-252"/>
<polyline fill="none" stroke="#069302" points="636.2468,-248 640.2468,-248 640.2468,-244 636.2468,-244 "/>
<polyline fill="none" stroke="#069302" points="636.2468,-224 640.2468,-224 640.2468,-220 636.2468,-220 "/>
<text text-anchor="middle" x="712.6402" y="-229.8" font-family="Helvetica,sans-Serif" font-size="14.00" fill="#000000">vedicmultiplier_8bit.sv</text>
</g>
<!-- C:\Users\usman\Desktop\Matrix_Multiplier &#45; Copy\data_path.sv&#45;&gt;C:\Users\usman\Desktop\Matrix_Multiplier &#45; Copy\vedicmultiplier_8bit.sv -->
<g id="edge3" class="edge">
<title>C:\Users\usman\Desktop\Matrix_Multiplier &#45; Copy\data_path.sv&#45;&gt;C:\Users\usman\Desktop\Matrix_Multiplier &#45; Copy\vedicmultiplier_8bit.sv</title>
<path fill="none" stroke="#000000" d="M455.9684,-294.5914C501.6835,-283.7996 571.3223,-267.3603 626.5339,-254.3267"/>
<polygon fill="#000000" stroke="#000000" points="627.3861,-257.7218 636.3145,-252.0179 625.7778,-250.9091 627.3861,-257.7218"/>
</g>
<!-- C:\Users\usman\Desktop\Matrix_Multiplier &#45; Copy\matrix_multipler.sv -->
<g id="node7" class="node">
<title>C:\Users\usman\Desktop\Matrix_Multiplier &#45; Copy\matrix_multipler.sv</title>
<polygon fill="#d3d3d3" stroke="#069302" points="412.7943,-396 280.4861,-396 280.4861,-392 276.4861,-392 276.4861,-388 280.4861,-388 280.4861,-368 276.4861,-368 276.4861,-364 280.4861,-364 280.4861,-360 412.7943,-360 412.7943,-396"/>
<polyline fill="none" stroke="#069302" points="280.4861,-392 284.4861,-392 284.4861,-388 280.4861,-388 "/>
<polyline fill="none" stroke="#069302" points="280.4861,-368 284.4861,-368 284.4861,-364 280.4861,-364 "/>
<text text-anchor="middle" x="346.6402" y="-373.8" font-family="Helvetica,sans-Serif" font-size="14.00" fill="#000000">matrix_multipler.sv</text>
</g>
<!-- C:\Users\usman\Desktop\Matrix_Multiplier &#45; Copy\matrix_multipler.sv&#45;&gt;C:\Users\usman\Desktop\Matrix_Multiplier &#45; Copy\control_path.sv -->
<g id="edge9" class="edge">
<title>C:\Users\usman\Desktop\Matrix_Multiplier &#45; Copy\matrix_multipler.sv&#45;&gt;C:\Users\usman\Desktop\Matrix_Multiplier &#45; Copy\control_path.sv</title>
<path fill="none" stroke="#000000" d="M331.2473,-359.8314C324.1498,-351.454 315.5922,-341.3531 307.8162,-332.1749"/>
<polygon fill="#000000" stroke="#000000" points="310.375,-329.7807 301.2403,-324.4133 305.0341,-334.3056 310.375,-329.7807"/>
</g>
<!-- C:\Users\usman\Desktop\Matrix_Multiplier &#45; Copy\matrix_multipler.sv&#45;&gt;C:\Users\usman\Desktop\Matrix_Multiplier &#45; Copy\data_path.sv -->
<g id="edge8" class="edge">
<title>C:\Users\usman\Desktop\Matrix_Multiplier &#45; Copy\matrix_multipler.sv&#45;&gt;C:\Users\usman\Desktop\Matrix_Multiplier &#45; Copy\data_path.sv</title>
<path fill="none" stroke="#000000" d="M362.0331,-359.8314C369.1306,-351.454 377.6882,-341.3531 385.4642,-332.1749"/>
<polygon fill="#000000" stroke="#000000" points="388.2463,-334.3056 392.0401,-324.4133 382.9054,-329.7807 388.2463,-334.3056"/>
</g>
<!-- C:\Users\usman\Desktop\Matrix_Multiplier &#45; Copy\vedicmultiplier_2bit.sv -->
<g id="node10" class="node">
<title>C:\Users\usman\Desktop\Matrix_Multiplier &#45; Copy\vedicmultiplier_2bit.sv</title>
<polygon fill="#d3d3d3" stroke="#069302" points="695.0336,-108 542.2468,-108 542.2468,-104 538.2468,-104 538.2468,-100 542.2468,-100 542.2468,-80 538.2468,-80 538.2468,-76 542.2468,-76 542.2468,-72 695.0336,-72 695.0336,-108"/>
<polyline fill="none" stroke="#069302" points="542.2468,-104 546.2468,-104 546.2468,-100 542.2468,-100 "/>
<polyline fill="none" stroke="#069302" points="542.2468,-80 546.2468,-80 546.2468,-76 542.2468,-76 "/>
<text text-anchor="middle" x="618.6402" y="-85.8" font-family="Helvetica,sans-Serif" font-size="14.00" fill="#000000">vedicmultiplier_2bit.sv</text>
</g>
<!-- C:\Users\usman\Desktop\Matrix_Multiplier &#45; Copy\vedicmultiplier_2bit.sv&#45;&gt;C:\Users\usman\Desktop\Matrix_Multiplier &#45; Copy\half_adder.sv -->
<g id="edge10" class="edge">
<title>C:\Users\usman\Desktop\Matrix_Multiplier &#45; Copy\vedicmultiplier_2bit.sv&#45;&gt;C:\Users\usman\Desktop\Matrix_Multiplier &#45; Copy\half_adder.sv</title>
<path fill="none" stroke="#000000" d="M581.7982,-71.8314C562.532,-62.3302 538.7703,-50.6121 518.341,-40.5374"/>
<polygon fill="#000000" stroke="#000000" points="519.734,-37.3219 509.2172,-36.038 516.6379,-43.6 519.734,-37.3219"/>
</g>
<!-- C:\Users\usman\Desktop\Matrix_Multiplier &#45; Copy\vedicmultiplier_4bit.sv -->
<g id="node11" class="node">
<title>C:\Users\usman\Desktop\Matrix_Multiplier &#45; Copy\vedicmultiplier_4bit.sv</title>
<polygon fill="#d3d3d3" stroke="#069302" points="742.0336,-180 589.2468,-180 589.2468,-176 585.2468,-176 585.2468,-172 589.2468,-172 589.2468,-152 585.2468,-152 585.2468,-148 589.2468,-148 589.2468,-144 742.0336,-144 742.0336,-180"/>
<polyline fill="none" stroke="#069302" points="589.2468,-176 593.2468,-176 593.2468,-172 589.2468,-172 "/>
<polyline fill="none" stroke="#069302" points="589.2468,-152 593.2468,-152 593.2468,-148 589.2468,-148 "/>
<text text-anchor="middle" x="665.6402" y="-157.8" font-family="Helvetica,sans-Serif" font-size="14.00" fill="#000000">vedicmultiplier_4bit.sv</text>
</g>
<!-- C:\Users\usman\Desktop\Matrix_Multiplier &#45; Copy\vedicmultiplier_4bit.sv&#45;&gt;C:\Users\usman\Desktop\Matrix_Multiplier &#45; Copy\vedicmultiplier_2bit.sv -->
<g id="edge11" class="edge">
<title>C:\Users\usman\Desktop\Matrix_Multiplier &#45; Copy\vedicmultiplier_4bit.sv&#45;&gt;C:\Users\usman\Desktop\Matrix_Multiplier &#45; Copy\vedicmultiplier_2bit.sv</title>
<path fill="none" stroke="#000000" d="M653.7801,-143.8314C648.4773,-135.7079 642.1165,-125.9637 636.2729,-117.0118"/>
<polygon fill="#000000" stroke="#000000" points="639.0571,-114.8739 630.66,-108.4133 633.1954,-118.7003 639.0571,-114.8739"/>
</g>
<!-- C:\Users\usman\Desktop\Matrix_Multiplier &#45; Copy\vedicmultiplier_8bit.sv&#45;&gt;C:\Users\usman\Desktop\Matrix_Multiplier &#45; Copy\vedicmultiplier_4bit.sv -->
<g id="edge12" class="edge">
<title>C:\Users\usman\Desktop\Matrix_Multiplier &#45; Copy\vedicmultiplier_8bit.sv&#45;&gt;C:\Users\usman\Desktop\Matrix_Multiplier &#45; Copy\vedicmultiplier_4bit.sv</title>
<path fill="none" stroke="#000000" d="M700.7801,-215.8314C695.4773,-207.7079 689.1165,-197.9637 683.2729,-189.0118"/>
<polygon fill="#000000" stroke="#000000" points="686.0571,-186.8739 677.66,-180.4133 680.1954,-190.7003 686.0571,-186.8739"/>
</g>
</g>
</svg>
